<svg width="596" height="596" viewBox="0 0 596 596" fill="none" xmlns="http://www.w3.org/2000/svg">
<path d="M385.324 443.142C394.243 458.234 399.362 475.839 399.362 494.639C399.362 550.619 353.981 596 298.001 596C242.021 596 196.641 550.619 196.641 494.639C196.641 475.839 201.759 458.234 210.679 443.142C213.11 438.044 215.847 432.613 218.746 426.862C235.426 393.766 257.457 350.051 257.457 298H338.545C338.545 350.051 360.577 393.766 377.257 426.862C380.155 432.613 382.892 438.044 385.324 443.142Z" fill="#473D5B" fill-opacity="0.4"/>
<path d="M385.324 152.858C394.243 137.766 399.362 120.161 399.362 101.361C399.362 45.3807 353.981 0 298.001 0C242.021 0 196.641 45.3807 196.641 101.361C196.641 120.161 201.759 137.766 210.679 152.858C213.11 157.956 215.847 163.387 218.746 169.138C235.426 202.234 257.457 245.949 257.457 298H338.545C338.545 245.949 360.577 202.234 377.257 169.138C380.155 163.387 382.892 157.956 385.324 152.858Z" fill="#473D5B" fill-opacity="0.4"/>
<path d="M462.377 338.883C479.356 343.247 495.424 352.077 508.718 365.371C548.302 404.954 548.301 469.132 508.718 508.716C469.134 548.3 404.956 548.3 365.372 508.716C352.078 495.422 343.249 479.354 338.884 462.375C336.999 457.051 335.094 451.276 333.077 445.16C321.469 409.962 306.136 363.473 269.331 326.667L326.669 269.329C363.475 306.135 409.964 321.467 445.161 333.076C451.278 335.093 457.053 336.997 462.377 338.883Z" fill="#473D5B" fill-opacity="0.7"/>
<path d="M257.115 133.621C252.751 116.642 243.922 100.574 230.628 87.2804C191.044 47.6966 126.866 47.6966 87.2821 87.2804C47.6984 126.864 47.6984 191.042 87.2821 230.626C100.576 243.92 116.644 252.749 133.623 257.114C138.947 258.999 144.722 260.904 150.838 262.921C186.036 274.529 232.525 289.862 269.331 326.667L326.669 269.329C289.863 232.524 274.531 186.034 262.923 150.837C260.905 144.721 259.001 138.945 257.115 133.621Z" fill="#473D5B" fill-opacity="0.7"/>
<path d="M443.142 210.676C458.234 201.757 475.839 196.638 494.639 196.638C550.619 196.638 596 242.019 596 297.999C596 353.979 550.619 399.359 494.639 399.359C475.839 399.359 458.234 394.241 443.142 385.321C438.044 382.89 432.613 380.153 426.862 377.254C393.766 360.574 350.051 338.543 298 338.543V257.455C350.051 257.455 393.766 235.423 426.862 218.743C432.613 215.845 438.044 213.108 443.142 210.676Z" fill="#473D5B" fill-opacity="0.6"/>
<path d="M152.858 210.676C137.766 201.757 120.161 196.638 101.361 196.638C45.3807 196.638 0 242.019 0 297.999C0 353.979 45.3807 399.359 101.361 399.359C120.161 399.359 137.766 394.241 152.858 385.321C157.956 382.89 163.387 380.153 169.138 377.254C202.234 360.574 245.949 338.543 298 338.543V257.455C245.949 257.455 202.234 235.423 169.138 218.743C163.387 215.845 157.956 213.108 152.858 210.676Z" fill="#473D5B" fill-opacity="0.6"/>
<path d="M338.883 133.623C343.247 116.644 352.077 100.576 365.371 87.2822C404.954 47.6985 469.132 47.6985 508.716 87.2823C548.3 126.866 548.3 191.044 508.716 230.628C495.422 243.922 479.354 252.751 462.375 257.116C457.051 259.001 451.276 260.906 445.16 262.923C409.962 274.531 363.473 289.864 326.667 326.669L269.329 269.331C306.135 232.525 321.467 186.036 333.076 150.839C335.093 144.722 336.997 138.947 338.883 133.623Z" fill="#473D5B" fill-opacity="0.5"/>
<path d="M133.621 338.885C116.642 343.249 100.574 352.078 87.2804 365.372C47.6966 404.956 47.6966 469.134 87.2804 508.718C126.864 548.302 191.042 548.302 230.626 508.718C243.92 495.424 252.749 479.356 257.114 462.377C258.999 457.053 260.904 451.278 262.921 445.162C274.529 409.964 289.862 363.475 326.667 326.669L269.329 269.331C232.524 306.137 186.034 321.469 150.837 333.077C144.721 335.095 138.945 336.999 133.621 338.885Z" fill="#473D5B" fill-opacity="0.5"/>
<circle cx="297" cy="295" r="33" fill="white"/>
</svg>
