<svg width="104" height="104" viewBox="0 0 104 104" fill="none" xmlns="http://www.w3.org/2000/svg">
<path d="M46.7981 74.0632C42.9181 82.6032 40.7981 90.9232 38.3481 99.0632C37.2181 102.763 35.4081 104.063 31.6681 103.963C22.5481 103.783 13.4081 103.963 4.28811 103.903C-0.301886 103.903 -0.661886 103.443 0.688114 99.2832C5.64811 84.0165 10.6481 68.7599 15.6881 53.5132C17.1181 49.1632 16.7781 48.5932 12.0981 48.5132H5.09811C2.85811 48.5132 2.21811 47.5132 2.86811 45.3932C7.32811 31.2599 11.7648 17.1299 16.1781 3.0032C16.9381 0.523199 18.5581 0.00319866 20.8281 0.00319866C26.8281 0.0731987 32.8281 0.113199 38.8281 0.00319866C42.1281 -0.0668013 43.0181 1.0032 41.5881 4.0932C37.5881 12.8599 33.6281 21.6665 29.7081 30.5132C27.8281 34.7832 28.1181 35.0932 32.7081 35.1732C42.0481 35.3332 42.0581 35.3432 38.6381 43.8432C34.5248 54.0765 30.4014 64.2965 26.2681 74.5032C25.5732 76.0113 25.2149 77.6527 25.2181 79.3132C30.8881 71.7532 36.5881 64.1932 42.2181 56.6132C48.8048 47.7865 55.3714 38.9399 61.9181 30.0732C62.5281 29.2432 63.7881 28.4832 63.2081 27.3032C62.6281 26.1232 61.2581 26.5632 60.2081 26.5832C57.8981 26.6432 55.5981 26.9232 53.2881 26.9732C51.2881 27.0232 50.3481 26.1832 51.6681 24.2432C56.4348 17.2632 61.2114 10.2965 65.9981 3.3432C67.1881 1.6232 68.9981 1.6832 70.7881 1.7732C83.3481 2.3932 95.7881 12.4232 99.9681 25.2332C104.148 38.0432 100.298 50.5332 89.5181 59.1032C87.3781 60.8032 85.3181 62.6132 82.7681 63.6632C79.7681 64.8832 79.7681 66.4832 81.4781 68.9732C88.4181 78.8832 95.2381 88.8832 102.098 98.8532C102.928 100.063 104.428 101.243 103.738 102.783C103.048 104.323 101.118 103.903 99.6781 103.903C90.2781 103.903 80.8781 103.903 71.4781 103.963C70.1951 104.049 68.9135 103.776 67.7763 103.176C66.6392 102.575 65.6912 101.671 65.0381 100.563C59.1881 91.8932 53.1881 83.3232 46.7981 74.0632Z" fill="#7E7CF6"/>
</svg>
