<svg width="120" height="28" viewBox="0 0 120 28" fill="none" xmlns="http://www.w3.org/2000/svg">
<path d="M35.9066 13.7724C35.9066 18.8016 39.6785 21.4896 43.6672 21.4896C46.8321 21.4896 50.0621 19.8205 50.7124 15.8101H47.5908C47.0706 17.6527 45.5314 18.5415 43.6455 18.5415C40.9358 18.5415 39.1799 16.3737 39.1799 13.7724C39.1799 10.8892 40.9791 8.93826 43.6672 8.93826C45.4881 8.93826 46.8538 9.69698 47.5258 11.4095H50.6691C49.9754 7.65928 46.7237 6.01177 43.6672 6.01177C39.6785 5.94674 35.9066 8.72148 35.9066 13.7724ZM55.9311 15.3549C55.9311 13.8808 56.9933 13.057 58.1639 13.057C59.4429 13.057 59.8982 13.6423 60.0716 14.7479C60.1366 15.2465 60.1366 15.8318 60.1366 16.5254V18.5198C60.1366 21.2729 61.8275 21.7931 64.3421 21.2729V19.4519C63.3232 19.517 63.1715 19.3002 63.1715 18.368V15.5716C63.1715 15.0514 63.1498 14.5745 63.0848 14.0759C62.7596 12.1032 61.6974 10.8025 59.3562 10.6942C58.0339 10.6291 56.7766 11.0193 55.9311 12.2983V5.49151H52.8963V21.3596H55.9311V15.3549ZM76.1181 11.6263C74.7308 11.041 73.2133 10.6725 71.6742 10.6508C68.1408 10.5858 65.7345 12.45 65.6261 15.9835C65.6261 18.9533 67.1219 21.4463 70.3519 21.5113C71.7392 21.5113 73.0833 20.7959 73.6686 19.4953C73.6686 21.6414 75.7063 21.533 77.1153 21.2295V19.2785C76.0748 19.3435 76.1181 18.8666 76.1181 17.9779V11.6263ZM73.17 16.0919C73.1049 17.6744 72.4546 18.8233 71.0022 18.8233C69.4414 18.845 68.661 17.631 68.661 15.9835C68.7261 13.9892 69.7883 13.0787 71.4358 13.0787C71.956 13.0787 72.5847 13.1437 73.17 13.3822V16.0919ZM79.014 7.87605C79.014 10.2172 82.5691 10.2172 82.5691 7.87605C82.5691 5.55654 79.014 5.55654 79.014 7.87605ZM82.309 11.0193H79.2741V21.3379H82.309V11.0193ZM84.4 12.6235C85.5706 12.5584 85.5489 12.9703 85.5489 14.1192V21.3379H88.5838V15.3332C88.5838 13.8808 89.646 12.992 90.7733 13.057C91.8788 13.057 92.811 13.8157 92.7893 15.2681V18.9317C92.7893 21.533 94.8487 21.7931 96.908 21.2729V19.4953C95.8458 19.5603 95.8025 19.0834 95.8025 18.1079V15.2681C95.8675 12.6668 94.6319 10.6508 91.6837 10.6508C90.2964 10.6508 89.0607 11.1927 88.3887 12.4284C88.3887 10.4123 85.9391 10.5641 84.4 10.8459V12.6235ZM98.7688 5.46983V17.3709C98.7688 21.1211 100.72 21.9232 103.95 21.3379L103.841 19.0617C102.389 19.3002 101.76 18.975 101.76 17.3709V5.46983H98.7688ZM105.307 7.87605C105.307 10.2172 108.862 10.2172 108.862 7.87605C108.862 5.55654 105.307 5.55654 105.307 7.87605ZM108.602 11.0193H105.567V21.3379H108.602V11.0193ZM115.44 7.65928H113.012L112.687 10.9109H110.498V12.992L112.47 13.1871V17.3058C112.47 21.598 115.657 22.1833 119.255 21.1861L118.974 18.8883C117.239 19.517 115.44 19.4086 115.44 17.2408V13.1871H118.843V10.9109H115.44V7.65928Z" fill="#2C1B49"/>
<path d="M3.06956 18.1262C2.41579 17.922 1.80045 17.5609 1.28255 17.043C-0.427518 15.3329 -0.427518 12.5604 1.28255 10.8503C2.97198 9.16087 5.69841 9.14048 7.41287 10.7891L7.41334 10.7884C7.42449 10.7995 7.4356 10.8107 7.44666 10.822C7.45623 10.8313 7.46576 10.8408 7.47527 10.8503C7.58165 10.9567 7.68141 11.0672 7.77456 11.1813C9.12208 12.7719 9.74629 14.9882 10.2078 16.6269C10.4917 17.6346 10.714 18.4239 11.0051 18.715C11.0051 18.715 10.4478 18.9628 9.92139 19.4891C9.39501 20.0155 9.1473 20.5729 9.1473 20.5729C8.08552 19.5111 6.17675 18.9991 4.60993 18.5789C4.02936 18.4231 3.49574 18.28 3.06956 18.1262Z" fill="url(#paint0_linear_88_780)"/>
<path d="M24.8237 9.76715C25.4775 9.97136 26.0929 10.3324 26.6108 10.8503C28.3208 12.5604 28.3208 15.3329 26.6108 17.043C24.9213 18.7324 22.1949 18.7528 20.4804 17.1042L20.48 17.1049C20.4688 17.0938 20.4577 17.0826 20.4466 17.0714C20.4371 17.062 20.4275 17.0525 20.418 17.043C20.3117 16.9366 20.2119 16.8261 20.1188 16.712C18.7712 15.1214 18.147 12.9051 17.6855 11.2664C17.4017 10.2587 17.1794 9.46942 16.8882 9.17827C16.8882 9.17827 17.4455 8.93056 17.9719 8.40418C18.4983 7.8778 18.746 7.32045 18.746 7.32045C19.8078 8.38223 21.7166 8.89421 23.2834 9.31446C23.864 9.47018 24.3976 9.61331 24.8237 9.76715Z" fill="url(#paint1_linear_88_780)"/>
<path d="M9.76717 3.06956C9.97138 2.41579 10.3324 1.80045 10.8503 1.28255C12.5604 -0.427518 15.333 -0.427518 17.043 1.28255C18.7325 2.97198 18.7529 5.69841 17.1042 7.41287L17.105 7.41334C17.0938 7.42449 17.0826 7.4356 17.0714 7.44666C17.062 7.45623 17.0525 7.46576 17.043 7.47527C16.9367 7.58165 16.8262 7.68141 16.7121 7.77456C15.1214 9.12208 12.9051 9.74629 11.2664 10.2078C10.2587 10.4917 9.46944 10.714 9.17829 11.0051C9.17829 11.0051 8.93058 10.4478 8.4042 9.92139C7.87782 9.39501 7.32048 9.1473 7.32048 9.1473C8.38225 8.08552 8.89423 6.17675 9.31448 4.60993C9.4702 4.02936 9.61333 3.49574 9.76717 3.06956Z" fill="url(#paint2_linear_88_780)"/>
<path d="M18.1261 24.8237C17.9219 25.4775 17.5609 26.0929 17.043 26.6108C15.3329 28.3208 12.5603 28.3208 10.8503 26.6108C9.16085 24.9213 9.14046 22.1949 10.7891 20.4804L10.7883 20.48C10.7995 20.4688 10.8107 20.4577 10.8219 20.4466C10.8313 20.4371 10.8408 20.4275 10.8503 20.418C10.9567 20.3117 11.0672 20.2119 11.1812 20.1188C12.7719 18.7712 14.9882 18.147 16.6269 17.6855C17.6346 17.4017 18.4239 17.1794 18.715 16.8882C18.715 16.8882 18.9627 17.4455 19.4891 17.9719C20.0155 18.4983 20.5728 18.746 20.5728 18.746C19.5111 19.8078 18.9991 21.7166 18.5788 23.2834C18.4231 23.864 18.28 24.3976 18.1261 24.8237Z" fill="url(#paint3_linear_88_780)"/>
<path d="M3.08736 18.0768L3.08738 18.0768L3.08519 18.0761C2.43932 17.8744 1.83139 17.5177 1.31963 17.0059C-0.369968 15.3163 -0.369968 12.577 1.31963 10.8874C2.98882 9.21818 5.68261 9.19802 7.37653 10.8269C7.37853 10.8288 7.38066 10.8306 7.3829 10.8321L7.40931 10.8587L7.4093 10.8587L7.40992 10.8594L7.43819 10.8874C7.54333 10.9925 7.64191 11.1017 7.73395 11.2144L7.73394 11.2144L7.73456 11.2152C9.07345 12.7956 9.69523 15.0003 10.1574 16.6411L10.1578 16.6427C10.2994 17.1453 10.4263 17.5959 10.5543 17.9572C10.668 18.2782 10.7851 18.5364 10.9192 18.6983C10.9091 18.7034 10.8979 18.7091 10.8856 18.7155C10.8241 18.7474 10.7368 18.7955 10.6329 18.8602C10.4254 18.9894 10.151 19.1853 9.88431 19.4521C9.6176 19.7188 9.42169 19.9931 9.29244 20.2007C9.22778 20.3045 9.1797 20.3918 9.14771 20.4534C9.14189 20.4646 9.1366 20.4749 9.13184 20.4843C8.59769 19.972 7.86952 19.5906 7.087 19.2864C6.27858 18.9721 5.40742 18.7385 4.62483 18.5286L4.62352 18.5282C4.04223 18.3723 3.51101 18.2298 3.08736 18.0768ZM24.8059 9.81647L24.8059 9.81651L24.8081 9.8172C25.454 10.0189 26.0619 10.3756 26.5737 10.8874C28.2633 12.577 28.2633 15.3163 26.5737 17.0059C24.9045 18.6751 22.2107 18.6953 20.5168 17.0664C20.5148 17.0645 20.5126 17.0627 20.5104 17.0612L20.484 17.0346L20.4834 17.0339L20.4551 17.0059L20.418 17.043L20.4551 17.0059C20.35 16.9008 20.2514 16.7916 20.1594 16.6789L20.1588 16.6782C18.8199 15.0977 18.1981 12.893 17.7359 11.2522L17.7355 11.2507C17.5939 10.748 17.467 10.2974 17.339 9.93612C17.2253 9.61512 17.1082 9.3569 16.9741 9.19505C16.9842 9.18995 16.9955 9.18422 17.0077 9.17786C17.0692 9.14586 17.1565 9.09779 17.2604 9.03312C17.468 8.90388 17.7423 8.70796 18.009 8.44125C18.2757 8.17454 18.4716 7.90022 18.6009 7.69264C18.6655 7.58879 18.7136 7.50148 18.7456 7.43995C18.7514 7.42876 18.7567 7.41841 18.7615 7.40898C19.2956 7.92133 20.0238 8.30269 20.8063 8.6069C21.6147 8.92118 22.4859 9.15484 23.2685 9.36475L23.2698 9.3651C23.8511 9.52101 24.3823 9.66354 24.8059 9.81647ZM9.81649 3.08736L9.81653 3.08738L9.81722 3.08519C10.019 2.43932 10.3756 1.83139 10.8874 1.31963C12.577 -0.369968 15.3164 -0.369968 17.006 1.31963C18.6752 2.98882 18.6953 5.68261 17.0664 7.37653C17.0645 7.37853 17.0628 7.38066 17.0612 7.3829L17.0346 7.40931L17.034 7.40992L17.006 7.43819C16.9008 7.54333 16.7916 7.64191 16.6789 7.73394L16.6782 7.73456C15.0977 9.07345 12.8931 9.69523 11.2522 10.1574L11.2507 10.1578C10.748 10.2994 10.2974 10.4263 9.93614 10.5543C9.61514 10.668 9.35692 10.7851 9.19507 10.9192C9.18997 10.9091 9.18424 10.8979 9.17788 10.8856C9.14588 10.8241 9.09781 10.7368 9.03315 10.6329C8.9039 10.4254 8.70798 10.151 8.44127 9.88431C8.17456 9.6176 7.90024 9.42169 7.69266 9.29244C7.58881 9.22778 7.5015 9.1797 7.43997 9.14771C7.42878 9.14189 7.41843 9.1366 7.409 9.13184C7.92136 8.59769 8.30271 7.86952 8.60692 7.087C8.9212 6.27857 9.15487 5.4074 9.36478 4.62481L9.36512 4.62352C9.52103 4.04223 9.66356 3.51101 9.81649 3.08736ZM18.0768 24.8059L18.0768 24.8059L18.0761 24.8081C17.8744 25.454 17.5177 26.0619 17.0059 26.5737C15.3163 28.2633 12.5769 28.2633 10.8874 26.5737C9.21816 24.9045 9.198 22.2107 10.8269 20.5168C10.8288 20.5148 10.8306 20.5126 10.8321 20.5104L10.8587 20.484L10.8593 20.4834L10.8873 20.4551L10.8503 20.418L10.8874 20.4551C10.9925 20.35 11.1017 20.2514 11.2144 20.1594L11.2151 20.1588C12.7956 18.8199 15.0003 18.1981 16.6411 17.7359L16.6426 17.7355C17.1453 17.5939 17.5959 17.467 17.9572 17.339C18.2782 17.2253 18.5364 17.1082 18.6982 16.9741C18.7033 16.9842 18.7091 16.9955 18.7154 17.0077C18.7474 17.0692 18.7955 17.1565 18.8602 17.2604C18.9894 17.468 19.1853 17.7423 19.452 18.009C19.7187 18.2757 19.9931 18.4716 20.2007 18.6009C20.3045 18.6655 20.3918 18.7136 20.4533 18.7456C20.4645 18.7514 20.4749 18.7567 20.4843 18.7615C19.972 19.2956 19.5906 20.0238 19.2864 20.8063C18.9721 21.6147 18.7384 22.4859 18.5285 23.2685L18.5282 23.2698C18.3723 23.8511 18.2298 24.3823 18.0768 24.8059Z" stroke="black" stroke-opacity="0.2" stroke-width="0.104862" stroke-linejoin="round"/>
<defs>
<linearGradient id="paint0_linear_88_780" x1="12.505" y1="28.9823" x2="11.8346" y2="-2.93954" gradientUnits="userSpaceOnUse">
<stop stop-color="#FF004F"/>
<stop offset="1" stop-color="#FF0581"/>
</linearGradient>
<linearGradient id="paint1_linear_88_780" x1="12.505" y1="28.9823" x2="11.8346" y2="-2.93954" gradientUnits="userSpaceOnUse">
<stop stop-color="#FF004F"/>
<stop offset="1" stop-color="#FF0581"/>
</linearGradient>
<linearGradient id="paint2_linear_88_780" x1="12.505" y1="28.9823" x2="11.8346" y2="-2.93954" gradientUnits="userSpaceOnUse">
<stop stop-color="#FF004F"/>
<stop offset="1" stop-color="#FF0581"/>
</linearGradient>
<linearGradient id="paint3_linear_88_780" x1="12.505" y1="28.9823" x2="11.8346" y2="-2.93954" gradientUnits="userSpaceOnUse">
<stop stop-color="#FF004F"/>
<stop offset="1" stop-color="#FF0581"/>
</linearGradient>
</defs>
</svg>
