<svg width="224" height="56" viewBox="0 0 224 56" fill="none" xmlns="http://www.w3.org/2000/svg">
<g clip-path="url(#clip0_12_121)">
<path d="M38.9863 23.5114L44.8037 17.6941L56.6301 39.5571L31.3151 51M31.3151 51L6 39.5571L17.8904 17.758L23.7078 23.5753M31.3151 51L45.3151 37.0639L31.3151 9L17.3151 37L31.3151 51Z" stroke="white" stroke-width="3" stroke-miterlimit="10"/>
<path d="M83.8801 36.305C82.7301 38.055 80.8101 39.165 78.6701 39.165C74.9201 39.165 71.8401 36.175 71.8401 32.545C71.8401 28.875 74.9201 25.885 78.6701 25.885C80.8101 25.885 82.7301 26.995 83.8801 28.705L87.7201 25.165C85.6301 22.345 82.3801 20.555 78.6701 20.555C71.6701 20.555 66.0001 25.885 66.0001 32.545C66.0001 39.165 71.6701 44.495 78.6701 44.495C82.2601 44.495 85.5401 42.705 87.6301 39.845L83.8801 36.305ZM103.85 20.555C101.5 20.555 99.3701 21.105 97.6601 22.175V11.975H91.7301V44.155H97.6601V27.635C98.9901 26.525 100.69 25.885 102.78 25.885C106.07 25.885 107.82 27.635 107.82 31.225V44.155H113.75V31.225C113.75 23.715 110.64 20.555 103.85 20.555ZM136.16 20.985V22.435C134.2 21.275 131.81 20.515 129.37 20.515C122.12 20.515 117.85 26.315 117.85 32.505C117.85 38.645 122.12 44.495 129.37 44.495C131.93 44.495 134.24 43.725 136.16 42.445V44.155H142.09V20.985H136.16ZM136.16 37.195C134.71 38.435 132.7 39.165 130.44 39.165C126.26 39.165 123.57 36.005 123.57 32.505C123.57 29.045 126.22 25.885 130.44 25.885C132.66 25.885 134.71 26.655 136.16 27.895V37.195ZM147.55 44.155H153.49V20.985H147.55V44.155ZM150.5 18.465C152.38 18.465 153.87 16.925 153.87 15.005C153.87 13.085 152.38 11.505 150.5 11.505C148.62 11.505 147.08 13.085 147.08 15.005C147.08 16.925 148.62 18.465 150.5 18.465ZM171.16 20.555C168.81 20.555 166.67 21.235 164.97 22.435V20.985H159.03V44.155H164.97V27.725C166.29 26.575 168 25.885 170.09 25.885C173.37 25.885 175.12 27.635 175.12 31.225V44.155H181.06V31.225C181.06 23.715 177.94 20.555 171.16 20.555ZM186.26 44.155H192.24V11.975H186.26V44.155ZM197.87 44.155H203.8V20.985H197.87V44.155ZM200.82 18.465C202.69 18.465 204.19 16.925 204.19 15.005C204.19 13.085 202.69 11.505 200.82 11.505C198.94 11.505 197.4 13.085 197.4 15.005C197.4 16.925 198.94 18.465 200.82 18.465ZM223.31 25.885V20.985H216.82V11.975H210.85V20.985H207.56V25.885H210.85V37.195C210.85 42.065 213.96 44.495 217.84 44.495C221.17 44.495 222.97 43.725 223.22 43.645V39.205C222.41 39.285 221.52 39.415 220.49 39.415C217.5 39.415 216.82 38.225 216.82 34.085V25.885H223.31Z" fill="white"/>
</g>
<defs>
<clipPath id="clip0_12_121">
<rect width="223.31" height="56" fill="white"/>
</clipPath>
</defs>
</svg>
