<svg width="170" height="161" viewBox="0 0 170 161" fill="none" xmlns="http://www.w3.org/2000/svg">
<path d="M0 160.15H8.78V144.1H18.98L27.5 160.15H37.38L26.78 142.6C32.31 139.87 34.78 133.89 34.78 129.01C34.78 119.85 29.06 114.65 18.79 114.65H0V122.32H17.81C23.66 122.32 26.52 124.72 26.52 129.21C26.52 134.02 23.14 136.81 17.88 136.81H0V160.15ZM70.85 143.7H79.76V114.65H70.85V143.7ZM60.71 160.8C60.71 160.8 60.78 153.58 60.78 152.22C54.54 152.22 50.25 148.9 50.25 142.4V114.65H41.6V143.7C41.6 155.34 50.18 160.8 60.71 160.8ZM103.81 121.08C109.72 121.08 113.81 124.4 113.81 129.6H122.59C122.59 119.39 115.38 114 103.74 114L103.81 121.08ZM86.25 126.22C86.25 142.79 113.81 136.81 113.81 147.54C113.81 151.24 109.98 153.65 104.52 153.65C98.22 153.65 94.51 150.4 94.51 145.13H85.61C85.61 155.92 93.21 160.8 104.72 160.8C115.25 160.8 122.59 155.53 122.59 147.54C122.59 131.03 94.77 136.03 94.77 126.35L86.25 126.22ZM141.77 140.52H161.07V160.15H169.85V114.65H161.07V132.2H141.77V140.52ZM128.96 160.15H137.74V114.65H128.96V160.15Z" fill="#23262F"/>
<path d="M79.7981 74.0632C75.9181 82.6032 73.7981 90.9232 71.3481 99.0632C70.2181 102.763 68.4081 104.063 64.6681 103.963C55.5481 103.783 46.4081 103.963 37.2881 103.903C32.6981 103.903 32.3381 103.443 33.6881 99.2832C38.6481 84.0165 43.6481 68.7599 48.6881 53.5132C50.1181 49.1632 49.7781 48.5932 45.0981 48.5132H38.0981C35.8581 48.5132 35.2181 47.5132 35.8681 45.3932C40.3281 31.2599 44.7648 17.1299 49.1781 3.0032C49.9381 0.523199 51.5581 0.00319866 53.8281 0.00319866C59.8281 0.0731987 65.8281 0.113199 71.8281 0.00319866C75.1281 -0.0668013 76.0181 1.0032 74.5881 4.0932C70.5881 12.8599 66.6281 21.6665 62.7081 30.5132C60.8281 34.7832 61.1181 35.0932 65.7081 35.1732C75.0481 35.3332 75.0581 35.3432 71.6381 43.8432C67.5248 54.0765 63.4014 64.2965 59.2681 74.5032C58.5732 76.0113 58.2149 77.6527 58.2181 79.3132C63.8881 71.7532 69.5881 64.1932 75.2181 56.6132C81.8048 47.7865 88.3714 38.9399 94.9181 30.0732C95.5281 29.2432 96.7881 28.4832 96.2081 27.3032C95.6281 26.1232 94.2581 26.5632 93.2081 26.5832C90.8981 26.6432 88.5981 26.9232 86.2881 26.9732C84.2881 27.0232 83.3481 26.1832 84.6681 24.2432C89.4348 17.2632 94.2114 10.2965 98.9981 3.3432C100.188 1.6232 101.998 1.6832 103.788 1.7732C116.348 2.3932 128.788 12.4232 132.968 25.2332C137.148 38.0432 133.298 50.5332 122.518 59.1032C120.378 60.8032 118.318 62.6132 115.768 63.6632C112.768 64.8832 112.768 66.4832 114.478 68.9732C121.418 78.8832 128.238 88.8832 135.098 98.8532C135.928 100.063 137.428 101.243 136.738 102.783C136.048 104.323 134.118 103.903 132.678 103.903C123.278 103.903 113.878 103.903 104.478 103.963C103.195 104.049 101.913 103.776 100.776 103.176C99.6392 102.575 98.6912 101.671 98.0381 100.563C92.1881 91.8932 86.1881 83.3232 79.7981 74.0632Z" fill="#7E7CF6"/>
</svg>
