<svg xmlns="http://www.w3.org/2000/svg" xmlns:xlink="http://www.w3.org/1999/xlink" width="300" zoomAndPan="magnify" viewBox="0 0 224.87999 225" height="300" preserveAspectRatio="xMidYMid meet" version="1.0"><defs><clipPath id="58d87a219d"><path d="M 49 9.046875 L 113 9.046875 L 113 73 L 49 73 Z M 49 9.046875 " clip-rule="nonzero"/></clipPath><clipPath id="0d70df7e5b"><path d="M 0.898438 117 L 45 117 L 45 162 L 0.898438 162 Z M 0.898438 117 " clip-rule="nonzero"/></clipPath><clipPath id="e68365b297"><path d="M 124 175 L 165 175 L 165 215.933594 L 124 215.933594 Z M 124 175 " clip-rule="nonzero"/></clipPath><clipPath id="9ccfe7a4eb"><path d="M 184 121 L 224.28125 121 L 224.28125 162 L 184 162 Z M 184 121 " clip-rule="nonzero"/></clipPath></defs><path fill="#0038ff" d="M 79.015625 71.996094 C 79.015625 71.996094 91.347656 71.996094 115.101562 127.648438 C 115.101562 127.648438 134.515625 174.632812 130.175781 182.386719 L 143.859375 176.011719 C 143.425781 176.191406 136.367188 178.175781 116.472656 127.191406 C 116.472656 127.191406 95.003906 76.101562 101.855469 64.242188 Z M 79.015625 71.996094 " fill-opacity="1" fill-rule="nonzero"/><path stroke-linecap="butt" transform="matrix(0.279223, 0, 0, 0.278827, 0.89976, 9.045474)" fill="none" stroke-linejoin="miter" d="M 511.990145 598.816778 L 462.984241 621.680423 C 478.526793 593.871394 408.998006 425.364088 408.998006 425.364088 C 323.926667 225.769511 279.761198 225.769511 279.761198 225.769511 L 361.558948 197.960482 C 337.021022 240.493586 413.908389 423.724967 413.908389 423.724967 C 485.157909 606.578089 510.437289 599.461219 511.990145 598.816778 Z M 511.990145 598.816778 C 512.046104 598.788758 512.060093 598.774749 512.060093 598.774749 Z M 511.990145 598.816778 " stroke="#0038ff" stroke-width="1" stroke-opacity="1" stroke-miterlimit="4"/><path stroke-linecap="butt" transform="matrix(0.279223, 0, 0, 0.278827, 0.89976, 9.045474)" fill="none" stroke-linejoin="miter" d="M 85.066604 390.998573 C 96.650072 391.839148 101.434548 391.544947 106.344931 389.359451 " stroke="#0038ff" stroke-width="1" stroke-opacity="1" stroke-miterlimit="4"/><path fill="#0038ff" d="M 57.085938 60.820312 C 57.085938 60.820312 62.570312 72.222656 47.949219 96.171875 C 33.332031 120.121094 26.9375 118.523438 26.9375 118.523438 L 38.359375 124.910156 C 38.359375 124.910156 34.476562 120.121094 48.863281 96.628906 C 48.863281 96.628906 60.742188 74.277344 75.359375 71.539062 Z M 57.085938 60.820312 " fill-opacity="1" fill-rule="nonzero"/><g clip-path="url(#58d87a219d)"><path fill="#0038ff" d="M 112.816406 40.75 C 112.816406 41.785156 112.765625 42.824219 112.664062 43.855469 C 112.5625 44.890625 112.410156 45.914062 112.207031 46.933594 C 112.003906 47.953125 111.753906 48.957031 111.449219 49.953125 C 111.148438 50.945312 110.796875 51.921875 110.402344 52.878906 C 110.003906 53.839844 109.558594 54.777344 109.070312 55.691406 C 108.578125 56.609375 108.042969 57.5 107.46875 58.363281 C 106.890625 59.226562 106.269531 60.058594 105.609375 60.859375 C 104.953125 61.664062 104.253906 62.429688 103.519531 63.164062 C 102.785156 63.898438 102.015625 64.597656 101.210938 65.253906 C 100.40625 65.914062 99.574219 66.53125 98.707031 67.109375 C 97.84375 67.683594 96.953125 68.21875 96.035156 68.707031 C 95.117188 69.199219 94.179688 69.640625 93.21875 70.039062 C 92.257812 70.433594 91.28125 70.785156 90.285156 71.085938 C 89.289062 71.386719 88.28125 71.640625 87.261719 71.84375 C 86.242188 72.042969 85.214844 72.195312 84.179688 72.296875 C 83.148438 72.398438 82.109375 72.453125 81.070312 72.453125 C 80.03125 72.453125 78.992188 72.398438 77.957031 72.296875 C 76.921875 72.195312 75.894531 72.042969 74.875 71.84375 C 73.855469 71.640625 72.847656 71.386719 71.855469 71.085938 C 70.859375 70.785156 69.878906 70.433594 68.921875 70.039062 C 67.960938 69.640625 67.019531 69.199219 66.105469 68.707031 C 65.1875 68.21875 64.296875 67.683594 63.429688 67.109375 C 62.566406 66.53125 61.734375 65.914062 60.929688 65.253906 C 60.125 64.597656 59.355469 63.898438 58.621094 63.164062 C 57.886719 62.429688 57.1875 61.664062 56.527344 60.859375 C 55.867188 60.058594 55.25 59.226562 54.671875 58.363281 C 54.09375 57.5 53.558594 56.609375 53.070312 55.691406 C 52.582031 54.777344 52.136719 53.839844 51.738281 52.878906 C 51.339844 51.921875 50.992188 50.945312 50.6875 49.953125 C 50.386719 48.957031 50.132812 47.953125 49.929688 46.933594 C 49.730469 45.914062 49.578125 44.890625 49.472656 43.855469 C 49.371094 42.824219 49.320312 41.785156 49.320312 40.75 C 49.320312 39.710938 49.371094 38.675781 49.472656 37.640625 C 49.578125 36.609375 49.730469 35.582031 49.929688 34.5625 C 50.132812 33.546875 50.386719 32.539062 50.6875 31.546875 C 50.992188 30.550781 51.339844 29.574219 51.738281 28.617188 C 52.136719 27.65625 52.582031 26.71875 53.070312 25.804688 C 53.558594 24.886719 54.09375 24 54.671875 23.136719 C 55.25 22.273438 55.867188 21.4375 56.527344 20.636719 C 57.1875 19.832031 57.886719 19.066406 58.621094 18.332031 C 59.355469 17.597656 60.125 16.902344 60.929688 16.242188 C 61.734375 15.582031 62.566406 14.964844 63.429688 14.386719 C 64.296875 13.8125 65.1875 13.277344 66.105469 12.789062 C 67.019531 12.300781 67.960938 11.855469 68.921875 11.457031 C 69.878906 11.0625 70.859375 10.710938 71.855469 10.410156 C 72.847656 10.109375 73.855469 9.855469 74.875 9.65625 C 75.894531 9.453125 76.921875 9.300781 77.957031 9.199219 C 78.992188 9.097656 80.03125 9.046875 81.070312 9.046875 C 82.109375 9.046875 83.148438 9.097656 84.179688 9.199219 C 85.214844 9.300781 86.242188 9.453125 87.261719 9.65625 C 88.28125 9.855469 89.289062 10.109375 90.285156 10.410156 C 91.28125 10.710938 92.257812 11.0625 93.21875 11.457031 C 94.179688 11.855469 95.117188 12.300781 96.035156 12.789062 C 96.953125 13.277344 97.84375 13.8125 98.707031 14.386719 C 99.574219 14.964844 100.40625 15.582031 101.210938 16.242188 C 102.015625 16.902344 102.785156 17.597656 103.519531 18.332031 C 104.253906 19.066406 104.953125 19.832031 105.609375 20.636719 C 106.269531 21.4375 106.890625 22.273438 107.46875 23.136719 C 108.042969 24 108.578125 24.886719 109.070312 25.804688 C 109.558594 26.71875 110.003906 27.65625 110.402344 28.617188 C 110.796875 29.574219 111.148438 30.550781 111.449219 31.546875 C 111.753906 32.539062 112.003906 33.546875 112.207031 34.5625 C 112.410156 35.582031 112.5625 36.609375 112.664062 37.640625 C 112.765625 38.675781 112.816406 39.710938 112.816406 40.75 Z M 112.816406 40.75 " fill-opacity="1" fill-rule="nonzero"/></g><g clip-path="url(#0d70df7e5b)"><path fill="#0038ff" d="M 44.753906 139.507812 C 44.753906 140.222656 44.71875 140.9375 44.648438 141.652344 C 44.578125 142.367188 44.472656 143.074219 44.332031 143.777344 C 44.191406 144.480469 44.019531 145.175781 43.808594 145.863281 C 43.601562 146.550781 43.359375 147.222656 43.085938 147.886719 C 42.808594 148.546875 42.503906 149.195312 42.164062 149.828125 C 41.824219 150.460938 41.457031 151.074219 41.058594 151.671875 C 40.660156 152.269531 40.230469 152.84375 39.777344 153.398438 C 39.320312 153.953125 38.839844 154.484375 38.332031 154.988281 C 37.824219 155.496094 37.292969 155.976562 36.738281 156.433594 C 36.183594 156.886719 35.605469 157.3125 35.007812 157.710938 C 34.410156 158.109375 33.796875 158.480469 33.164062 158.816406 C 32.53125 159.15625 31.882812 159.460938 31.21875 159.734375 C 30.554688 160.011719 29.878906 160.25 29.191406 160.460938 C 28.503906 160.667969 27.808594 160.84375 27.105469 160.980469 C 26.398438 161.121094 25.691406 161.226562 24.976562 161.296875 C 24.261719 161.367188 23.542969 161.402344 22.828125 161.402344 C 22.109375 161.402344 21.390625 161.367188 20.675781 161.296875 C 19.960938 161.226562 19.253906 161.121094 18.550781 160.980469 C 17.84375 160.84375 17.148438 160.667969 16.460938 160.460938 C 15.773438 160.25 15.097656 160.011719 14.4375 159.734375 C 13.773438 159.460938 13.125 159.15625 12.492188 158.816406 C 11.855469 158.480469 11.242188 158.109375 10.644531 157.710938 C 10.046875 157.3125 9.472656 156.886719 8.917969 156.433594 C 8.359375 155.976562 7.828125 155.496094 7.320312 154.988281 C 6.8125 154.484375 6.332031 153.953125 5.875 153.398438 C 5.421875 152.84375 4.992188 152.269531 4.59375 151.671875 C 4.195312 151.074219 3.828125 150.460938 3.488281 149.828125 C 3.148438 149.195312 2.84375 148.546875 2.570312 147.886719 C 2.292969 147.222656 2.050781 146.550781 1.84375 145.863281 C 1.636719 145.175781 1.460938 144.480469 1.320312 143.777344 C 1.179688 143.074219 1.074219 142.367188 1.003906 141.652344 C 0.933594 140.9375 0.898438 140.222656 0.898438 139.507812 C 0.898438 138.789062 0.933594 138.074219 1.003906 137.359375 C 1.074219 136.648438 1.179688 135.9375 1.320312 135.234375 C 1.460938 134.53125 1.636719 133.835938 1.84375 133.152344 C 2.050781 132.464844 2.292969 131.789062 2.570312 131.128906 C 2.84375 130.464844 3.148438 129.816406 3.488281 129.183594 C 3.828125 128.554688 4.195312 127.9375 4.59375 127.34375 C 4.992188 126.746094 5.421875 126.171875 5.875 125.617188 C 6.332031 125.0625 6.8125 124.53125 7.320312 124.023438 C 7.828125 123.515625 8.359375 123.035156 8.917969 122.582031 C 9.472656 122.125 10.046875 121.699219 10.644531 121.300781 C 11.242188 120.902344 11.855469 120.535156 12.492188 120.195312 C 13.125 119.859375 13.773438 119.550781 14.4375 119.277344 C 15.097656 119.003906 15.773438 118.761719 16.460938 118.554688 C 17.148438 118.347656 17.84375 118.171875 18.550781 118.03125 C 19.253906 117.890625 19.960938 117.785156 20.675781 117.714844 C 21.390625 117.644531 22.109375 117.609375 22.828125 117.609375 C 23.542969 117.609375 24.261719 117.644531 24.976562 117.714844 C 25.691406 117.785156 26.398438 117.890625 27.105469 118.03125 C 27.808594 118.171875 28.503906 118.347656 29.191406 118.554688 C 29.878906 118.761719 30.554688 119.003906 31.21875 119.277344 C 31.882812 119.550781 32.53125 119.859375 33.164062 120.195312 C 33.796875 120.535156 34.410156 120.902344 35.007812 121.300781 C 35.605469 121.699219 36.183594 122.125 36.738281 122.582031 C 37.292969 123.035156 37.824219 123.515625 38.332031 124.023438 C 38.839844 124.53125 39.320312 125.0625 39.777344 125.617188 C 40.230469 126.171875 40.660156 126.746094 41.058594 127.34375 C 41.457031 127.9375 41.824219 128.554688 42.164062 129.183594 C 42.503906 129.816406 42.808594 130.464844 43.085938 131.128906 C 43.359375 131.789062 43.601562 132.464844 43.808594 133.152344 C 44.019531 133.835938 44.191406 134.53125 44.332031 135.234375 C 44.472656 135.9375 44.578125 136.648438 44.648438 137.359375 C 44.71875 138.074219 44.753906 138.789062 44.753906 139.507812 Z M 44.753906 139.507812 " fill-opacity="1" fill-rule="nonzero"/></g><g clip-path="url(#e68365b297)"><path fill="#0038ff" d="M 164.4375 195.613281 C 164.4375 196.273438 164.40625 196.925781 164.339844 197.582031 C 164.277344 198.234375 164.179688 198.886719 164.050781 199.53125 C 163.921875 200.175781 163.761719 200.8125 163.570312 201.441406 C 163.378906 202.070312 163.160156 202.6875 162.90625 203.296875 C 162.65625 203.902344 162.375 204.496094 162.0625 205.074219 C 161.753906 205.65625 161.414062 206.21875 161.050781 206.765625 C 160.683594 207.3125 160.292969 207.839844 159.875 208.347656 C 159.457031 208.855469 159.015625 209.34375 158.550781 209.808594 C 158.085938 210.273438 157.597656 210.710938 157.089844 211.128906 C 156.578125 211.546875 156.050781 211.9375 155.503906 212.304688 C 154.957031 212.667969 154.390625 213.003906 153.8125 213.316406 C 153.230469 213.625 152.636719 213.90625 152.027344 214.15625 C 151.421875 214.410156 150.800781 214.628906 150.171875 214.820312 C 149.542969 215.011719 148.902344 215.171875 148.257812 215.300781 C 147.613281 215.429688 146.960938 215.523438 146.308594 215.589844 C 145.652344 215.652344 144.996094 215.683594 144.335938 215.683594 C 143.679688 215.683594 143.023438 215.652344 142.367188 215.589844 C 141.710938 215.523438 141.0625 215.429688 140.414062 215.300781 C 139.769531 215.171875 139.132812 215.011719 138.503906 214.820312 C 137.871094 214.628906 137.253906 214.410156 136.644531 214.15625 C 136.035156 213.90625 135.441406 213.625 134.863281 213.316406 C 134.28125 213.003906 133.71875 212.667969 133.171875 212.304688 C 132.621094 211.9375 132.09375 211.546875 131.585938 211.128906 C 131.078125 210.710938 130.589844 210.273438 130.125 209.808594 C 129.660156 209.34375 129.21875 208.855469 128.800781 208.347656 C 128.382812 207.839844 127.992188 207.3125 127.625 206.765625 C 127.257812 206.21875 126.921875 205.65625 126.609375 205.074219 C 126.300781 204.496094 126.019531 203.902344 125.765625 203.296875 C 125.515625 202.6875 125.292969 202.070312 125.101562 201.441406 C 124.910156 200.8125 124.753906 200.175781 124.625 199.53125 C 124.496094 198.886719 124.398438 198.234375 124.335938 197.582031 C 124.269531 196.925781 124.238281 196.273438 124.238281 195.613281 C 124.238281 194.957031 124.269531 194.300781 124.335938 193.648438 C 124.398438 192.992188 124.496094 192.34375 124.625 191.699219 C 124.753906 191.054688 124.910156 190.417969 125.101562 189.789062 C 125.292969 189.160156 125.515625 188.539062 125.765625 187.933594 C 126.019531 187.328125 126.300781 186.734375 126.609375 186.152344 C 126.921875 185.574219 127.257812 185.011719 127.625 184.464844 C 127.992188 183.917969 128.382812 183.390625 128.800781 182.882812 C 129.21875 182.375 129.660156 181.886719 130.125 181.421875 C 130.589844 180.957031 131.078125 180.515625 131.585938 180.097656 C 132.09375 179.683594 132.621094 179.292969 133.171875 178.925781 C 133.71875 178.5625 134.28125 178.222656 134.863281 177.914062 C 135.441406 177.601562 136.035156 177.324219 136.644531 177.070312 C 137.253906 176.820312 137.871094 176.597656 138.503906 176.40625 C 139.132812 176.214844 139.769531 176.058594 140.414062 175.929688 C 141.0625 175.800781 141.710938 175.703125 142.367188 175.640625 C 143.023438 175.574219 143.679688 175.542969 144.335938 175.542969 C 144.996094 175.542969 145.652344 175.574219 146.308594 175.640625 C 146.960938 175.703125 147.613281 175.800781 148.257812 175.929688 C 148.902344 176.058594 149.542969 176.214844 150.171875 176.40625 C 150.800781 176.597656 151.421875 176.820312 152.027344 177.070312 C 152.636719 177.324219 153.230469 177.601562 153.8125 177.914062 C 154.390625 178.222656 154.957031 178.5625 155.503906 178.925781 C 156.050781 179.292969 156.578125 179.683594 157.089844 180.097656 C 157.597656 180.515625 158.085938 180.957031 158.550781 181.421875 C 159.015625 181.886719 159.457031 182.375 159.875 182.882812 C 160.292969 183.390625 160.683594 183.917969 161.050781 184.464844 C 161.414062 185.011719 161.753906 185.574219 162.0625 186.152344 C 162.375 186.734375 162.65625 187.328125 162.90625 187.933594 C 163.160156 188.539062 163.378906 189.160156 163.570312 189.789062 C 163.761719 190.417969 163.921875 191.054688 164.050781 191.699219 C 164.179688 192.34375 164.277344 192.992188 164.339844 193.648438 C 164.40625 194.300781 164.4375 194.957031 164.4375 195.613281 Z M 164.4375 195.613281 " fill-opacity="1" fill-rule="nonzero"/></g><g clip-path="url(#9ccfe7a4eb)"><path fill="#0038ff" d="M 224.277344 141.332031 C 224.277344 141.988281 224.246094 142.644531 224.183594 143.300781 C 224.117188 143.953125 224.019531 144.601562 223.890625 145.246094 C 223.765625 145.890625 223.605469 146.527344 223.414062 147.15625 C 223.222656 147.785156 223 148.40625 222.75 149.011719 C 222.496094 149.621094 222.214844 150.214844 221.90625 150.792969 C 221.59375 151.371094 221.257812 151.9375 220.890625 152.484375 C 220.523438 153.027344 220.132812 153.554688 219.714844 154.066406 C 219.296875 154.574219 218.855469 155.058594 218.390625 155.523438 C 217.925781 155.988281 217.4375 156.429688 216.929688 156.847656 C 216.421875 157.265625 215.894531 157.65625 215.34375 158.019531 C 214.796875 158.386719 214.234375 158.722656 213.652344 159.03125 C 213.074219 159.34375 212.480469 159.625 211.871094 159.875 C 211.261719 160.125 210.644531 160.347656 210.011719 160.539062 C 209.382812 160.730469 208.746094 160.890625 208.101562 161.015625 C 207.453125 161.144531 206.804688 161.242188 206.148438 161.304688 C 205.492188 161.371094 204.835938 161.402344 204.179688 161.402344 C 203.519531 161.402344 202.863281 161.371094 202.207031 161.304688 C 201.554688 161.242188 200.902344 161.144531 200.257812 161.015625 C 199.613281 160.890625 198.972656 160.730469 198.34375 160.539062 C 197.714844 160.347656 197.09375 160.125 196.488281 159.875 C 195.878906 159.625 195.285156 159.34375 194.703125 159.03125 C 194.125 158.722656 193.558594 158.386719 193.011719 158.019531 C 192.464844 157.65625 191.9375 157.265625 191.429688 156.847656 C 190.917969 156.429688 190.433594 155.988281 189.964844 155.523438 C 189.5 155.058594 189.058594 154.574219 188.640625 154.066406 C 188.222656 153.554688 187.832031 153.027344 187.464844 152.484375 C 187.101562 151.9375 186.761719 151.371094 186.453125 150.792969 C 186.140625 150.214844 185.859375 149.621094 185.609375 149.011719 C 185.355469 148.40625 185.136719 147.785156 184.945312 147.15625 C 184.753906 146.527344 184.59375 145.890625 184.464844 145.246094 C 184.335938 144.601562 184.242188 143.953125 184.175781 143.300781 C 184.113281 142.644531 184.078125 141.988281 184.078125 141.332031 C 184.078125 140.675781 184.113281 140.019531 184.175781 139.363281 C 184.242188 138.710938 184.335938 138.0625 184.464844 137.414062 C 184.59375 136.769531 184.753906 136.132812 184.945312 135.503906 C 185.136719 134.875 185.355469 134.257812 185.609375 133.652344 C 185.859375 133.042969 186.140625 132.449219 186.453125 131.871094 C 186.761719 131.289062 187.101562 130.726562 187.464844 130.179688 C 187.832031 129.632812 188.222656 129.105469 188.640625 128.597656 C 189.058594 128.089844 189.5 127.605469 189.964844 127.140625 C 190.433594 126.675781 190.917969 126.234375 191.429688 125.816406 C 191.9375 125.398438 192.464844 125.007812 193.011719 124.644531 C 193.558594 124.277344 194.125 123.941406 194.703125 123.628906 C 195.285156 123.320312 195.878906 123.039062 196.488281 122.789062 C 197.09375 122.535156 197.714844 122.316406 198.34375 122.125 C 198.972656 121.933594 199.613281 121.773438 200.257812 121.644531 C 200.902344 121.519531 201.554688 121.421875 202.207031 121.355469 C 202.863281 121.292969 203.519531 121.261719 204.179688 121.261719 C 204.835938 121.261719 205.492188 121.292969 206.148438 121.355469 C 206.804688 121.421875 207.453125 121.519531 208.101562 121.644531 C 208.746094 121.773438 209.382812 121.933594 210.011719 122.125 C 210.644531 122.316406 211.261719 122.535156 211.871094 122.789062 C 212.480469 123.039062 213.074219 123.320312 213.652344 123.628906 C 214.234375 123.941406 214.796875 124.277344 215.34375 124.644531 C 215.894531 125.007812 216.421875 125.398438 216.929688 125.816406 C 217.4375 126.234375 217.925781 126.675781 218.390625 127.140625 C 218.855469 127.605469 219.296875 128.089844 219.714844 128.597656 C 220.132812 129.105469 220.523438 129.632812 220.890625 130.179688 C 221.257812 130.726562 221.59375 131.289062 221.90625 131.871094 C 222.214844 132.449219 222.496094 133.042969 222.75 133.652344 C 223 134.257812 223.222656 134.875 223.414062 135.503906 C 223.605469 136.132812 223.765625 136.769531 223.890625 137.414062 C 224.019531 138.0625 224.117188 138.710938 224.183594 139.363281 C 224.246094 140.019531 224.277344 140.675781 224.277344 141.332031 Z M 224.277344 141.332031 " fill-opacity="1" fill-rule="nonzero"/></g><path stroke-linecap="butt" transform="matrix(0.279223, 0, 0, 0.278827, 0.89976, 9.045474)" fill="none" stroke-linejoin="miter" d="M 81.793015 390.998573 C 97.979093 393.366193 105.519539 391.600985 116.151708 382.816974 " stroke="#0038ff" stroke-width="1" stroke-opacity="1" stroke-miterlimit="4"/><path stroke-linecap="butt" transform="matrix(0.279223, 0, 0, 0.278827, 0.89976, 9.045474)" fill-opacity="1" fill="#0038ff" fill-rule="nonzero" stroke-linejoin="miter" d="M 548.05558 606.956347 C 548.05558 606.956347 563.598132 623.319544 626.579742 567.687477 C 626.579742 567.687477 667.485612 533.335971 665.848817 507.152054 L 693.660332 536.600204 C 693.660332 536.600204 672.395995 530.057728 629.85333 570.96572 C 629.85333 570.96572 578.329282 619.228745 579.140684 641.307853 Z M 548.05558 606.956347 " stroke="#0038ff" stroke-width="1" stroke-opacity="1" stroke-miterlimit="4"/></svg>