<svg width="928" height="928" viewBox="0 0 928 928" fill="none" xmlns="http://www.w3.org/2000/svg">
<path d="M279.433 424.318C272.971 401.949 260.926 380.851 243.298 363.222C187.64 307.565 97.4011 307.565 41.7433 363.222C-13.9144 418.88 -13.9144 509.119 41.7433 564.777C59.372 582.406 80.4699 594.451 102.839 600.912C114.473 604.619 127.86 607.501 142.461 610.646C190.765 621.047 252.365 634.311 307.795 689.741C307.795 689.741 315.858 671.601 332.99 654.469C350.122 637.337 368.262 629.274 368.262 629.274C312.832 573.845 299.568 512.244 289.166 463.941C286.022 449.339 283.14 435.952 279.433 424.318Z" fill="url(#paint0_linear_361_1710)"/>
<path d="M648.567 503.682C655.029 526.051 667.074 547.148 684.702 564.777C740.36 620.435 830.599 620.435 886.257 564.777C941.914 509.119 941.914 418.88 886.257 363.222C868.628 345.594 847.53 333.549 825.161 327.087C813.527 323.381 800.14 320.498 785.539 317.354C737.235 306.953 675.635 293.688 620.205 238.259C620.205 238.259 612.142 256.398 595.01 273.531C577.878 290.663 559.738 298.725 559.738 298.725C615.168 354.155 628.432 415.755 638.834 464.059C641.978 478.661 644.86 492.048 648.567 503.682Z" fill="url(#paint1_linear_361_1710)"/>
<path d="M327.088 102.838C333.55 80.4686 345.595 59.3709 363.223 41.7423C418.881 -13.9154 509.12 -13.9154 564.778 41.7423C620.436 97.4001 620.436 187.639 564.778 243.297C547.149 260.926 526.051 272.971 503.682 279.432C492.048 283.139 478.662 286.021 464.06 289.165C415.756 299.567 354.156 312.831 298.726 368.261C298.726 368.261 290.664 350.121 273.532 332.989C256.4 315.857 238.26 307.794 238.26 307.794C293.689 252.365 306.954 190.764 317.355 142.461C320.499 127.859 323.382 114.472 327.088 102.838Z" fill="url(#paint2_linear_361_1710)"/>
<path d="M600.912 825.162C594.45 847.531 582.405 868.628 564.777 886.257C509.119 941.915 418.88 941.915 363.222 886.257C307.564 830.599 307.564 740.36 363.222 684.702C380.851 667.074 401.949 655.029 424.318 648.567C435.952 644.861 449.338 641.978 463.94 638.834C512.244 628.433 573.844 615.168 629.274 559.739C629.274 559.739 637.336 577.878 654.468 595.011C671.6 612.143 689.74 620.205 689.74 620.205C634.31 675.635 621.046 737.235 610.645 785.539C607.501 800.141 604.618 813.528 600.912 825.162Z" fill="url(#paint3_linear_361_1710)"/>
<path d="M277.757 424.802C277.762 424.817 277.766 424.832 277.771 424.847C281.447 436.385 284.312 449.683 287.461 464.308L287.477 464.383C297.771 512.187 310.958 573.428 365.304 628.768C365.013 628.915 364.696 629.077 364.355 629.254C362.352 630.296 359.509 631.861 356.128 633.966C349.37 638.174 340.439 644.552 331.756 653.235C323.073 661.919 316.695 670.849 312.487 677.607C310.382 680.988 308.817 683.831 307.775 685.834C307.598 686.175 307.436 686.492 307.289 686.783C251.948 632.437 190.707 619.25 142.904 608.957L142.829 608.94C128.204 605.791 114.907 602.926 103.369 599.25C103.354 599.245 103.339 599.241 103.323 599.236C81.2299 592.855 60.3918 580.959 42.9768 563.544C-11.9998 508.567 -11.9998 419.432 42.9768 364.456C97.9533 309.479 187.088 309.479 242.064 364.456C259.479 381.871 271.375 402.709 277.757 424.802ZM650.243 503.197C650.238 503.182 650.234 503.167 650.229 503.152C646.553 491.614 643.688 478.316 640.539 463.692L640.523 463.616C630.229 415.813 617.042 354.572 562.696 299.232C562.987 299.085 563.304 298.922 563.645 298.745C565.648 297.703 568.491 296.138 571.872 294.033C578.63 289.825 587.561 283.447 596.244 274.764C604.927 266.081 611.305 257.15 615.513 250.392C617.618 247.011 619.183 244.169 620.225 242.165C620.402 241.824 620.564 241.508 620.711 241.217C676.052 295.563 737.293 308.75 785.096 319.043L785.171 319.059C799.796 322.208 813.093 325.073 824.631 328.749L824.648 328.755L824.677 328.763C846.77 335.145 867.608 347.041 885.023 364.456C940 419.432 940 508.567 885.023 563.544C830.047 618.52 740.912 618.52 685.936 563.544C668.521 546.129 656.625 525.291 650.243 503.197ZM328.75 103.367C328.755 103.352 328.76 103.337 328.764 103.322C335.146 81.2286 347.042 60.3907 364.457 42.9758C419.433 -12.0008 508.568 -12.0008 563.545 42.9758C618.521 97.9523 618.521 187.087 563.545 242.063C546.13 259.479 525.291 271.375 503.198 277.756C503.183 277.761 503.167 277.765 503.152 277.77C491.615 281.446 478.317 284.311 463.693 287.46L463.617 287.476C415.814 297.77 354.573 310.957 299.233 365.303C299.086 365.012 298.923 364.695 298.746 364.354C297.704 362.351 296.139 359.508 294.034 356.127C289.826 349.369 283.448 340.438 274.765 331.755C266.082 323.072 257.151 316.694 250.393 312.486C247.012 310.381 244.17 308.816 242.166 307.774C241.825 307.597 241.509 307.435 241.218 307.288C295.564 251.948 308.751 190.707 319.044 142.903L319.06 142.828C322.209 128.203 325.074 114.905 328.75 103.367ZM599.25 824.632C599.245 824.647 599.24 824.662 599.236 824.677C592.854 846.771 580.958 867.609 563.543 885.023C508.567 940 419.432 940 364.455 885.023C309.479 830.047 309.479 740.912 364.455 685.936C381.87 668.521 402.709 656.625 424.802 650.243C424.817 650.239 424.832 650.234 424.848 650.229C436.385 646.553 449.683 643.688 464.307 640.539L464.383 640.523C512.186 630.23 573.427 617.043 628.767 562.697C628.914 562.988 629.077 563.304 629.254 563.645C630.296 565.649 631.861 568.491 633.966 571.872C638.174 578.63 644.552 587.561 653.235 596.244C661.918 604.927 670.849 611.305 677.607 615.513C680.988 617.618 683.83 619.183 685.834 620.225C686.175 620.402 686.491 620.565 686.782 620.712C632.436 676.052 619.249 737.293 608.956 785.096L608.94 785.172C605.791 799.796 602.926 813.094 599.25 824.632Z" stroke="black" stroke-opacity="0.1" stroke-width="3.48872" stroke-linejoin="round"/>
<defs>
<linearGradient id="paint0_linear_361_1710" x1="416.035" y1="964.232" x2="393.734" y2="-97.7984" gradientUnits="userSpaceOnUse">
<stop stop-color="#FF004F"/>
<stop offset="1" stop-color="#FF0581"/>
</linearGradient>
<linearGradient id="paint1_linear_361_1710" x1="416.035" y1="964.232" x2="393.734" y2="-97.7984" gradientUnits="userSpaceOnUse">
<stop stop-color="#FF004F"/>
<stop offset="1" stop-color="#FF0581"/>
</linearGradient>
<linearGradient id="paint2_linear_361_1710" x1="416.035" y1="964.232" x2="393.734" y2="-97.7984" gradientUnits="userSpaceOnUse">
<stop stop-color="#FF004F"/>
<stop offset="1" stop-color="#FF0581"/>
</linearGradient>
<linearGradient id="paint3_linear_361_1710" x1="416.035" y1="964.232" x2="393.734" y2="-97.7984" gradientUnits="userSpaceOnUse">
<stop stop-color="#FF004F"/>
<stop offset="1" stop-color="#FF0581"/>
</linearGradient>
</defs>
</svg>
