<svg xmlns="http://www.w3.org/2000/svg" xmlns:xlink="http://www.w3.org/1999/xlink" width="1143" zoomAndPan="magnify" viewBox="0 0 857.25 199.499995" height="266" preserveAspectRatio="xMidYMid meet" version="1.0"><defs><g/><clipPath id="e2a5a3fb8b"><path d="M 0.699219 2 L 239 2 L 239 197 L 0.699219 197 Z M 0.699219 2 " clip-rule="nonzero"/></clipPath><clipPath id="a0c5e830f1"><path d="M 84 0 L 281.992188 0 L 281.992188 199 L 84 199 Z M 84 0 " clip-rule="nonzero"/></clipPath></defs><g clip-path="url(#e2a5a3fb8b)"><path fill="#ea4242" d="M 0.734375 196.648438 L 22.851562 182.570312 C 23.121094 182.390625 48.425781 166.285156 69.171875 153.597656 C 86.40625 160.835938 106.035156 164.644531 126.160156 164.644531 C 188.378906 164.644531 238.988281 128.226562 238.988281 83.488281 C 238.988281 38.730469 188.378906 2.324219 126.160156 2.324219 C 63.957031 2.324219 13.347656 38.730469 13.347656 83.488281 C 13.347656 102.125 22.117188 120.015625 38.144531 134.367188 L 0.734375 196.648438 " fill-opacity="1" fill-rule="nonzero"/></g><g clip-path="url(#a0c5e830f1)"><path fill="#f6be31" d="M 84.484375 97.96875 C 84.484375 152.078125 128.339844 195.9375 182.453125 195.9375 C 201.785156 195.9375 219.8125 190.328125 235 180.667969 L 267.273438 193.257812 L 281.929688 198.984375 L 279.300781 192.257812 L 263.816406 152.5625 C 274.304688 136.964844 280.429688 118.175781 280.429688 97.96875 C 280.429688 43.855469 236.5625 -0.0117188 182.453125 -0.0117188 C 128.339844 -0.0117188 84.484375 43.855469 84.484375 97.96875 " fill-opacity="1" fill-rule="nonzero"/></g><path fill="#ffffff" d="M 155.253906 99.488281 C 155.253906 102.769531 152.589844 105.433594 149.300781 105.433594 C 146.019531 105.433594 143.355469 102.769531 143.355469 99.488281 C 143.355469 96.203125 146.019531 93.539062 149.300781 93.539062 C 152.589844 93.539062 155.253906 96.203125 155.253906 99.488281 " fill-opacity="1" fill-rule="nonzero"/><path fill="#ffffff" d="M 189.15625 99.488281 C 189.15625 102.769531 186.492188 105.433594 183.210938 105.433594 C 179.921875 105.433594 177.257812 102.769531 177.257812 99.488281 C 177.257812 96.203125 179.921875 93.539062 183.210938 93.539062 C 186.492188 93.539062 189.15625 96.203125 189.15625 99.488281 " fill-opacity="1" fill-rule="nonzero"/><path fill="#ffffff" d="M 223.058594 99.488281 C 223.058594 102.769531 220.398438 105.433594 217.113281 105.433594 C 213.824219 105.433594 211.160156 102.769531 211.160156 99.488281 C 211.160156 96.203125 213.824219 93.539062 217.113281 93.539062 C 220.398438 93.539062 223.058594 96.203125 223.058594 99.488281 " fill-opacity="1" fill-rule="nonzero"/><g fill="#ea4242" fill-opacity="1"><g transform="translate(290.316463, 133.914366)"><g><path d="M 40.40625 1.390625 C 33.351562 1.390625 27.097656 -0.148438 21.640625 -3.234375 C 16.191406 -6.328125 11.9375 -10.597656 8.875 -16.046875 C 5.820312 -21.503906 4.296875 -27.789062 4.296875 -34.90625 C 4.296875 -42.019531 5.820312 -48.300781 8.875 -53.75 C 11.9375 -59.207031 16.175781 -63.484375 21.59375 -66.578125 C 27.007812 -69.671875 33.242188 -71.21875 40.296875 -71.21875 C 46.210938 -71.21875 51.628906 -70.085938 56.546875 -67.828125 C 61.472656 -65.566406 65.613281 -62.375 68.96875 -58.25 C 72.332031 -54.125 74.679688 -49.269531 76.015625 -43.6875 L 59.65625 -43.6875 C 58.320312 -47.539062 55.957031 -50.582031 52.5625 -52.8125 C 49.175781 -55.039062 45.253906 -56.15625 40.796875 -56.15625 C 36.867188 -56.15625 33.359375 -55.253906 30.265625 -53.453125 C 27.179688 -51.660156 24.773438 -49.171875 23.046875 -45.984375 C 21.316406 -42.796875 20.453125 -39.101562 20.453125 -34.90625 C 20.453125 -30.71875 21.316406 -27.023438 23.046875 -23.828125 C 24.773438 -20.640625 27.164062 -18.148438 30.21875 -16.359375 C 33.28125 -14.566406 36.773438 -13.671875 40.703125 -13.671875 C 45.285156 -13.671875 49.304688 -14.847656 52.765625 -17.203125 C 56.222656 -19.566406 58.6875 -22.742188 60.15625 -26.734375 L 76.515625 -26.734375 C 75.378906 -21.078125 73.113281 -16.140625 69.71875 -11.921875 C 66.332031 -7.703125 62.128906 -4.425781 57.109375 -2.09375 C 52.085938 0.226562 46.519531 1.390625 40.40625 1.390625 Z M 40.40625 1.390625 "/></g></g></g><g fill="#ea4242" fill-opacity="1"><g transform="translate(370.811607, 133.914366)"><g><path d="M 7.578125 0 L 7.578125 -73.8125 L 22.75 -73.8125 L 22.75 -48.375 C 24.738281 -50.175781 27.0625 -51.523438 29.71875 -52.421875 C 32.382812 -53.316406 35.179688 -53.765625 38.109375 -53.765625 C 44.890625 -53.765625 50.207031 -51.671875 54.0625 -47.484375 C 57.914062 -43.296875 59.84375 -37.539062 59.84375 -30.21875 L 59.84375 0 L 44.6875 0 L 44.6875 -28.734375 C 44.6875 -32.585938 43.769531 -35.5625 41.9375 -37.65625 C 40.113281 -39.75 37.570312 -40.796875 34.3125 -40.796875 C 30.851562 -40.796875 28.0625 -39.613281 25.9375 -37.25 C 23.8125 -34.894531 22.75 -31.65625 22.75 -27.53125 L 22.75 0 Z M 7.578125 0 "/></g></g></g><g fill="#ea4242" fill-opacity="1"><g transform="translate(437.242548, 133.914366)"><g><path d="M 25.03125 1 C 18.851562 1 13.96875 -0.445312 10.375 -3.34375 C 6.78125 -6.238281 4.984375 -10.210938 4.984375 -15.265625 C 4.984375 -20.117188 6.59375 -23.988281 9.8125 -26.875 C 13.039062 -29.769531 17.382812 -31.21875 22.84375 -31.21875 L 41.796875 -31.21875 L 41.796875 -33.609375 C 41.796875 -36.203125 40.863281 -38.28125 39 -39.84375 C 37.132812 -41.40625 34.707031 -42.1875 31.71875 -42.1875 C 29.257812 -42.1875 27.164062 -41.617188 25.4375 -40.484375 C 23.707031 -39.359375 22.609375 -37.867188 22.140625 -36.015625 L 7.578125 -36.015625 C 8.515625 -41.734375 11.09375 -46.117188 15.3125 -49.171875 C 19.53125 -52.234375 24.96875 -53.765625 31.625 -53.765625 C 39.46875 -53.765625 45.597656 -51.785156 50.015625 -47.828125 C 54.441406 -43.867188 56.65625 -38.429688 56.65625 -31.515625 L 56.65625 0 L 45.390625 0 L 43.6875 -6.078125 C 39.101562 -1.359375 32.882812 1 25.03125 1 Z M 19.953125 -15.859375 C 19.953125 -14.066406 20.734375 -12.617188 22.296875 -11.515625 C 23.859375 -10.421875 25.9375 -9.875 28.53125 -9.875 C 32.320312 -9.875 35.460938 -10.96875 37.953125 -13.15625 C 40.453125 -15.351562 41.765625 -18.21875 41.890625 -21.75 L 27.53125 -21.75 C 25.269531 -21.75 23.441406 -21.210938 22.046875 -20.140625 C 20.648438 -19.078125 19.953125 -17.648438 19.953125 -15.859375 Z M 19.953125 -15.859375 "/></g></g></g><g fill="#ea4242" fill-opacity="1"><g transform="translate(498.985379, 133.914366)"><g><path d="M 32.8125 0 C 26.164062 0 21.0625 -1.710938 17.5 -5.140625 C 13.945312 -8.566406 12.171875 -13.46875 12.171875 -19.84375 L 12.171875 -40 L 2 -40 L 2 -52.375 L 6.6875 -52.375 C 9.539062 -52.375 11.484375 -52.835938 12.515625 -53.765625 C 13.546875 -54.691406 14.257812 -56.488281 14.65625 -59.15625 L 15.5625 -65.9375 L 27.328125 -65.9375 L 27.328125 -52.375 L 41.703125 -52.375 L 41.703125 -40 L 27.328125 -40 L 27.328125 -22.140625 C 27.328125 -16.160156 30.253906 -13.171875 36.109375 -13.171875 L 42.390625 -13.171875 L 42.390625 0 Z M 32.8125 0 "/></g></g></g><g fill="#f6be31" fill-opacity="1"><g transform="translate(550.859366, 133.620158)"><g><path d="M 5.359375 0 L 0.234375 -13.875 L 4.5 -13.875 L 6.109375 -9.28125 L 7.484375 -5.390625 L 8.90625 -9.28125 L 10.625 -13.875 L 13.875 -13.875 L 15.59375 -9.28125 L 17.03125 -5.359375 L 18.40625 -9.28125 L 20.046875 -13.875 L 24.265625 -13.875 L 19.140625 0 L 15.40625 0 L 12.265625 -8.453125 L 9.09375 0 Z M 5.359375 0 "/></g></g></g><g fill="#f6be31" fill-opacity="1"><g transform="translate(575.359853, 133.620158)"><g><path d="M 2.015625 0 L 2.015625 -13.875 L 6.03125 -13.875 L 6.03125 0 Z M 1.421875 -18.375 C 1.421875 -19.113281 1.660156 -19.71875 2.140625 -20.1875 C 2.628906 -20.65625 3.253906 -20.890625 4.015625 -20.890625 C 4.796875 -20.890625 5.421875 -20.65625 5.890625 -20.1875 C 6.367188 -19.71875 6.609375 -19.113281 6.609375 -18.375 C 6.609375 -17.632812 6.367188 -17.03125 5.890625 -16.5625 C 5.421875 -16.09375 4.796875 -15.859375 4.015625 -15.859375 C 3.253906 -15.859375 2.628906 -16.09375 2.140625 -16.5625 C 1.660156 -17.03125 1.421875 -17.632812 1.421875 -18.375 Z M 1.421875 -18.375 "/></g></g></g><g fill="#f6be31" fill-opacity="1"><g transform="translate(583.394537, 133.620158)"><g><path d="M 8.703125 0 C 6.929688 0 5.570312 -0.453125 4.625 -1.359375 C 3.6875 -2.265625 3.21875 -3.566406 3.21875 -5.265625 L 3.21875 -10.59375 L 0.53125 -10.59375 L 0.53125 -13.875 L 1.765625 -13.875 C 2.523438 -13.875 3.039062 -14 3.3125 -14.25 C 3.59375 -14.5 3.785156 -14.972656 3.890625 -15.671875 L 4.125 -17.46875 L 7.25 -17.46875 L 7.25 -13.875 L 11.046875 -13.875 L 11.046875 -10.59375 L 7.25 -10.59375 L 7.25 -5.875 C 7.25 -4.28125 8.023438 -3.484375 9.578125 -3.484375 L 11.234375 -3.484375 L 11.234375 0 Z M 8.703125 0 "/></g></g></g><g fill="#f6be31" fill-opacity="1"><g transform="translate(595.737285, 133.620158)"><g><path d="M 2.015625 0 L 2.015625 -19.5625 L 6.03125 -19.5625 L 6.03125 -12.828125 C 6.5625 -13.296875 7.175781 -13.648438 7.875 -13.890625 C 8.582031 -14.128906 9.320312 -14.25 10.09375 -14.25 C 11.894531 -14.25 13.304688 -13.691406 14.328125 -12.578125 C 15.347656 -11.472656 15.859375 -9.953125 15.859375 -8.015625 L 15.859375 0 L 11.84375 0 L 11.84375 -7.609375 C 11.84375 -8.628906 11.597656 -9.414062 11.109375 -9.96875 C 10.628906 -10.53125 9.957031 -10.8125 9.09375 -10.8125 C 8.175781 -10.8125 7.4375 -10.5 6.875 -9.875 C 6.3125 -9.25 6.03125 -8.390625 6.03125 -7.296875 L 6.03125 0 Z M 2.015625 0 "/></g></g></g><g fill="#ea4242" fill-opacity="1"><g transform="translate(611.572101, 133.914366)"><g><path d="M 40.40625 1.390625 C 33.351562 1.390625 27.097656 -0.148438 21.640625 -3.234375 C 16.191406 -6.328125 11.9375 -10.597656 8.875 -16.046875 C 5.820312 -21.503906 4.296875 -27.789062 4.296875 -34.90625 C 4.296875 -42.019531 5.820312 -48.300781 8.875 -53.75 C 11.9375 -59.207031 16.175781 -63.484375 21.59375 -66.578125 C 27.007812 -69.671875 33.242188 -71.21875 40.296875 -71.21875 C 46.210938 -71.21875 51.628906 -70.085938 56.546875 -67.828125 C 61.472656 -65.566406 65.613281 -62.375 68.96875 -58.25 C 72.332031 -54.125 74.679688 -49.269531 76.015625 -43.6875 L 59.65625 -43.6875 C 58.320312 -47.539062 55.957031 -50.582031 52.5625 -52.8125 C 49.175781 -55.039062 45.253906 -56.15625 40.796875 -56.15625 C 36.867188 -56.15625 33.359375 -55.253906 30.265625 -53.453125 C 27.179688 -51.660156 24.773438 -49.171875 23.046875 -45.984375 C 21.316406 -42.796875 20.453125 -39.101562 20.453125 -34.90625 C 20.453125 -30.71875 21.316406 -27.023438 23.046875 -23.828125 C 24.773438 -20.640625 27.164062 -18.148438 30.21875 -16.359375 C 33.28125 -14.566406 36.773438 -13.671875 40.703125 -13.671875 C 45.285156 -13.671875 49.304688 -14.847656 52.765625 -17.203125 C 56.222656 -19.566406 58.6875 -22.742188 60.15625 -26.734375 L 76.515625 -26.734375 C 75.378906 -21.078125 73.113281 -16.140625 69.71875 -11.921875 C 66.332031 -7.703125 62.128906 -4.425781 57.109375 -2.09375 C 52.085938 0.226562 46.519531 1.390625 40.40625 1.390625 Z M 40.40625 1.390625 "/></g></g></g><g fill="#ea4242" fill-opacity="1"><g transform="translate(692.067245, 133.914366)"><g><path d="M 8.375 0 L 8.375 -69.828125 L 38.203125 -69.828125 C 43.523438 -69.828125 48.144531 -68.863281 52.0625 -66.9375 C 55.988281 -65.007812 59.015625 -62.25 61.140625 -58.65625 C 63.273438 -55.0625 64.34375 -50.769531 64.34375 -45.78125 C 64.34375 -40.664062 63.175781 -36.257812 60.84375 -32.5625 C 58.519531 -28.875 55.265625 -26.097656 51.078125 -24.234375 L 65.53125 0 L 47.1875 0 L 34.71875 -21.75 L 24.234375 -21.75 L 24.234375 0 Z M 24.046875 -35.109375 L 36.109375 -35.109375 C 40.035156 -35.109375 43.046875 -36.019531 45.140625 -37.84375 C 47.234375 -39.675781 48.28125 -42.289062 48.28125 -45.6875 C 48.28125 -49.070312 47.234375 -51.679688 45.140625 -53.515625 C 43.046875 -55.347656 40.035156 -56.265625 36.109375 -56.265625 L 24.046875 -56.265625 Z M 24.046875 -35.109375 "/></g></g></g><g fill="#ea4242" fill-opacity="1"><g transform="translate(762.288536, 133.914366)"><g><path d="M 8.375 0 L 8.375 -69.828125 L 21.84375 -69.828125 L 46.6875 -33.609375 L 71.421875 -69.828125 L 84.78125 -69.828125 L 84.78125 0 L 69.03125 0 L 69.03125 -42 L 52.0625 -17.25 L 41.09375 -17.25 L 24.140625 -42.09375 L 24.140625 0 Z M 8.375 0 "/></g></g></g></svg>